HIERARCHY
ROOT Hips
{
  OFFSET 0.0 0.0 0.0
  CHANNELS 6 Xposition Yposition Zposition Zrotation Xrotation Yrotation
  JOINT Spine
  {
    OFFSET 0.0 10.0 0.0
    CHANNELS 3 Zrotation Xrotation Yrotation
    JOINT Spine1
    {
      OFFSET 0.0 10.0 0.0
      CHANNELS 3 Zrotation Xrotation Yrotation
      JOINT Neck
      {
        OFFSET 0.0 10.0 0.0
        CHANNELS 3 Zrotation Xrotation Yrotation
        JOINT Head
        {
          OFFSET 0.0 5.0 0.0
          CHANNELS 3 Zrotation Xrotation Yrotation
          End Site
          {
            OFFSET 0.0 2.0 0.0
          }
        }
      }
      JOINT LeftShoulder
      {
        OFFSET -5.0 5.0 0.0
        CHANNELS 3 Zrotation Xrotation Yrotation
        JOINT LeftArm
        {
          OFFSET -10.0 0.0 0.0
          CHANNELS 3 Zrotation Xrotation Yrotation
          JOINT LeftForeArm
          {
            OFFSET -10.0 0.0 0.0
            CHANNELS 3 Zrotation Xrotation Yrotation
            End Site
            {
              OFFSET -5.0 0.0 0.0
            }
          }
        }
      }
      JOINT RightShoulder
      {
        OFFSET 5.0 5.0 0.0
        CHANNELS 3 Zrotation Xrotation Yrotation
        JOINT RightArm
        {
          OFFSET 10.0 0.0 0.0
          CHANNELS 3 Zrotation Xrotation Yrotation
          JOINT RightForeArm
          {
            OFFSET 10.0 0.0 0.0
            CHANNELS 3 Zrotation Xrotation Yrotation
            End Site
            {
              OFFSET 5.0 0.0 0.0
            }
          }
        }
      }
    }
  }
  JOINT LeftUpLeg
  {
    OFFSET -3.0 -10.0 0.0
    CHANNELS 3 Zrotation Xrotation Yrotation
    JOINT LeftLeg
    {
      OFFSET 0.0 -15.0 0.0
      CHANNELS 3 Zrotation Xrotation Yrotation
      JOINT LeftFoot
      {
        OFFSET 0.0 -10.0 5.0
        CHANNELS 3 Zrotation Xrotation Yrotation
        End Site
        {
          OFFSET 0.0 -2.0 5.0
        }
      }
    }
  }
  JOINT RightUpLeg
  {
    OFFSET 3.0 -10.0 0.0
    CHANNELS 3 Zrotation Xrotation Yrotation
    JOINT RightLeg
    {
      OFFSET 0.0 -15.0 0.0
      CHANNELS 3 Zrotation Xrotation Yrotation
      JOINT RightFoot
      {
        OFFSET 0.0 -10.0 5.0
        CHANNELS 3 Zrotation Xrotation Yrotation
        End Site
        {
          OFFSET 0.0 -2.0 5.0
        }
      }
    }
  }
}
MOTION
Frames: 20
Frame Time: 0.0333333
0.0 0.0 0.0 0.0 0.0 0.0 0.0 0.0 0.0 0.0 0.0 0.0 0.0 0.0 0.0 0.0 15.0 0.0 0.0 30.0 0.0 30.0 0.0 0.0 15.0 0.0 0.0 0.0 -30.0 0.0 -30.0 0.0 0.0 -15.0 0.0 0.0 30.0 0.0 0.0 30.0 0.0 0.0 30.0 0.0 0.0 -30.0 0.0 0.0 -30.0 0.0 0.0 -30.0 0.0 0.0
0.0 0.0 3.0 0.0 0.0 0.0 0.0 0.0 0.0 0.0 0.0 0.0 0.0 0.0 0.0 0.0 -15.0 0.0 0.0 -30.0 0.0 -30.0 0.0 0.0 -15.0 0.0 0.0 0.0 30.0 0.0 30.0 0.0 0.0 15.0 0.0 0.0 -30.0 0.0 0.0 -30.0 0.0 0.0 -30.0 0.0 0.0 30.0 0.0 0.0 30.0 0.0 0.0 30.0 0.0 0.0
0.0 0.0 6.0 0.0 0.0 0.0 0.0 0.0 0.0 0.0 0.0 0.0 0.0 0.0 0.0 0.0 15.0 0.0 0.0 30.0 0.0 30.0 0.0 0.0 15.0 0.0 0.0 0.0 -30.0 0.0 -30.0 0.0 0.0 -15.0 0.0 0.0 30.0 0.0 0.0 30.0 0.0 0.0 30.0 0.0 0.0 -30.0 0.0 0.0 -30.0 0.0 0.0 -30.0 0.0 0.0
0.0 0.0 9.0 0.0 0.0 0.0 0.0 0.0 0.0 0.0 0.0 0.0 0.0 0.0 0.0 0.0 -15.0 0.0 0.0 -30.0 0.0 -30.0 0.0 0.0 -15.0 0.0 0.0 0.0 30.0 0.0 30.0 0.0 0.0 15.0 0.0 0.0 -30.0 0.0 0.0 -30.0 0.0 0.0 -30.0 0.0 0.0 30.0 0.0 0.0 30.0 0.0 0.0 30.0 0.0 0.0
0.0 0.0 12.0 0.0 0.0 0.0 0.0 0.0 0.0 0.0 0.0 0.0 0.0 0.0 0.0 0.0 15.0 0.0 0.0 30.0 0.0 30.0 0.0 0.0 15.0 0.0 0.0 0.0 -30.0 0.0 -30.0 0.0 0.0 -15.0 0.0 0.0 30.0 0.0 0.0 30.0 0.0 0.0 30.0 0.0 0.0 -30.0 0.0 0.0 -30.0 0.0 0.0 -30.0 0.0 0.0
0.0 0.0 15.0 0.0 0.0 0.0 0.0 0.0 0.0 0.0 0.0 0.0 0.0 0.0 0.0 0.0 -15.0 0.0 0.0 -30.0 0.0 -30.0 0.0 0.0 -15.0 0.0 0.0 0.0 30.0 0.0 30.0 0.0 0.0 15.0 0.0 0.0 -30.0 0.0 0.0 -30.0 0.0 0.0 -30.0 0.0 0.0 30.0 0.0 0.0 30.0 0.0 0.0 30.0 0.0 0.0
0.0 0.0 18.0 0.0 0.0 0.0 0.0 0.0 0.0 0.0 0.0 0.0 0.0 0.0 0.0 0.0 15.0 0.0 0.0 30.0 0.0 30.0 0.0 0.0 15.0 0.0 0.0 0.0 -30.0 0.0 -30.0 0.0 0.0 -15.0 0.0 0.0 30.0 0.0 0.0 30.0 0.0 0.0 30.0 0.0 0.0 -30.0 0.0 0.0 -30.0 0.0 0.0 -30.0 0.0 0.0
0.0 0.0 21.0 0.0 0.0 0.0 0.0 0.0 0.0 0.0 0.0 0.0 0.0 0.0 0.0 0.0 -15.0 0.0 0.0 -30.0 0.0 -30.0 0.0 0.0 -15.0 0.0 0.0 0.0 30.0 0.0 30.0 0.0 0.0 15.0 0.0 0.0 -30.0 0.0 0.0 -30.0 0.0 0.0 -30.0 0.0 0.0 30.0 0.0 0.0 30.0 0.0 0.0 30.0 0.0 0.0
0.0 0.0 24.0 0.0 0.0 0.0 0.0 0.0 0.0 0.0 0.0 0.0 0.0 0.0 0.0 0.0 15.0 0.0 0.0 30.0 0.0 30.0 0.0 0.0 15.0 0.0 0.0 0.0 -30.0 0.0 -30.0 0.0 0.0 -15.0 0.0 0.0 30.0 0.0 0.0 30.0 0.0 0.0 30.0 0.0 0.0 -30.0 0.0 0.0 -30.0 0.0 0.0 -30.0 0.0 0.0
0.0 0.0 27.0 0.0 0.0 0.0 0.0 0.0 0.0 0.0 0.0 0.0 0.0 0.0 0.0 0.0 -15.0 0.0 0.0 -30.0 0.0 -30.0 0.0 0.0 -15.0 0.0 0.0 0.0 30.0 0.0 30.0 0.0 0.0 15.0 0.0 0.0 -30.0 0.0 0.0 -30.0 0.0 0.0 -30.0 0.0 0.0 30.0 0.0 0.0 30.0 0.0 0.0 30.0 0.0 0.0
0.0 0.0 30.0 0.0 0.0 0.0 0.0 0.0 0.0 0.0 0.0 0.0 0.0 0.0 0.0 0.0 15.0 0.0 0.0 30.0 0.0 30.0 0.0 0.0 15.0 0.0 0.0 0.0 -30.0 0.0 -30.0 0.0 0.0 -15.0 0.0 0.0 30.0 0.0 0.0 30.0 0.0 0.0 30.0 0.0 0.0 -30.0 0.0 0.0 -30.0 0.0 0.0 -30.0 0.0 0.0
0.0 0.0 33.0 0.0 0.0 0.0 0.0 0.0 0.0 0.0 0.0 0.0 0.0 0.0 0.0 0.0 -15.0 0.0 0.0 -30.0 0.0 -30.0 0.0 0.0 -15.0 0.0 0.0 0.0 30.0 0.0 30.0 0.0 0.0 15.0 0.0 0.0 -30.0 0.0 0.0 -30.0 0.0 0.0 -30.0 0.0 0.0 30.0 0.0 0.0 30.0 0.0 0.0 30.0 0.0 0.0
0.0 0.0 36.0 0.0 0.0 0.0 0.0 0.0 0.0 0.0 0.0 0.0 0.0 0.0 0.0 0.0 15.0 0.0 0.0 30.0 0.0 30.0 0.0 0.0 15.0 0.0 0.0 0.0 -30.0 0.0 -30.0 0.0 0.0 -15.0 0.0 0.0 30.0 0.0 0.0 30.0 0.0 0.0 30.0 0.0 0.0 -30.0 0.0 0.0 -30.0 0.0 0.0 -30.0 0.0 0.0
0.0 0.0 39.0 0.0 0.0 0.0 0.0 0.0 0.0 0.0 0.0 0.0 0.0 0.0 0.0 0.0 -15.0 0.0 0.0 -30.0 0.0 -30.0 0.0 0.0 -15.0 0.0 0.0 0.0 30.0 0.0 30.0 0.0 0.0 15.0 0.0 0.0 -30.0 0.0 0.0 -30.0 0.0 0.0 -30.0 0.0 0.0 30.0 0.0 0.0 30.0 0.0 0.0 30.0 0.0 0.0
0.0 0.0 42.0 0.0 0.0 0.0 0.0 0.0 0.0 0.0 0.0 0.0 0.0 0.0 0.0 0.0 15.0 0.0 0.0 30.0 0.0 30.0 0.0 0.0 15.0 0.0 0.0 0.0 -30.0 0.0 -30.0 0.0 0.0 -15.0 0.0 0.0 30.0 0.0 0.0 30.0 0.0 0.0 30.0 0.0 0.0 -30.0 0.0 0.0 -30.0 0.0 0.0 -30.0 0.0 0.0
0.0 0.0 45.0 0.0 0.0 0.0 0.0 0.0 0.0 0.0 0.0 0.0 0.0 0.0 0.0 0.0 -15.0 0.0 0.0 -30.0 0.0 -30.0 0.0 0.0 -15.0 0.0 0.0 0.0 30.0 0.0 30.0 0.0 0.0 15.0 0.0 0.0 -30.0 0.0 0.0 -30.0 0.0 0.0 -30.0 0.0 0.0 30.0 0.0 0.0 30.0 0.0 0.0 30.0 0.0 0.0
0.0 0.0 48.0 0.0 0.0 0.0 0.0 0.0 0.0 0.0 0.0 0.0 0.0 0.0 0.0 0.0 15.0 0.0 0.0 30.0 0.0 30.0 0.0 0.0 15.0 0.0 0.0 0.0 -30.0 0.0 -30.0 0.0 0.0 -15.0 0.0 0.0 30.0 0.0 0.0 30.0 0.0 0.0 30.0 0.0 0.0 -30.0 0.0 0.0 -30.0 0.0 0.0 -30.0 0.0 0.0
0.0 0.0 51.0 0.0 0.0 0.0 0.0 0.0 0.0 0.0 0.0 0.0 0.0 0.0 0.0 0.0 -15.0 0.0 0.0 -30.0 0.0 -30.0 0.0 0.0 -15.0 0.0 0.0 0.0 30.0 0.0 30.0 0.0 0.0 15.0 0.0 0.0 -30.0 0.0 0.0 -30.0 0.0 0.0 -30.0 0.0 0.0 30.0 0.0 0.0 30.0 0.0 0.0 30.0 0.0 0.0
0.0 0.0 54.0 0.0 0.0 0.0 0.0 0.0 0.0 0.0 0.0 0.0 0.0 0.0 0.0 0.0 15.0 0.0 0.0 30.0 0.0 30.0 0.0 0.0 15.0 0.0 0.0 0.0 -30.0 0.0 -30.0 0.0 0.0 -15.0 0.0 0.0 30.0 0.0 0.0 30.0 0.0 0.0 30.0 0.0 0.0 -30.0 0.0 0.0 -30.0 0.0 0.0 -30.0 0.0 0.0
0.0 0.0 57.0 0.0 0.0 0.0 0.0 0.0 0.0 0.0 0.0 0.0 0.0 0.0 0.0 0.0 -15.0 0.0 0.0 -30.0 0.0 -30.0 0.0 0.0 -15.0 0.0 0.0 0.0 30.0 0.0 30.0 0.0 0.0 15.0 0.0 0.0 -30.0 0.0 0.0 -30.0 0.0 0.0 -30.0 0.0 0.0 30.0 0.0 0.0 30.0 0.0 0.0 30.0 0.0 0.0
